<svg width="19" height="19" viewBox="0 0 19 19" fill="none" xmlns="http://www.w3.org/2000/svg">
<path d="M9.32892 0C7.48383 0 5.68018 0.547131 4.14605 1.57221C2.61192 2.59728 1.41621 4.05426 0.710125 5.75889C0.00404191 7.46353 -0.180702 9.33926 0.179257 11.1489C0.539215 12.9585 1.42771 14.6208 2.73238 15.9255C4.03705 17.2301 5.69931 18.1186 7.50894 18.4786C9.31857 18.8385 11.1943 18.6538 12.8989 17.9477C14.6036 17.2416 16.0606 16.0459 17.0856 14.5118C18.1107 12.9777 18.6578 11.174 18.6578 9.32892C18.6549 6.85562 17.6711 4.48447 15.9222 2.73558C14.1734 0.986703 11.8022 0.00290463 9.32892 0ZM9.87768 17.542V11.341H12.2556C12.4012 11.341 12.5408 11.2832 12.6437 11.1803C12.7466 11.0774 12.8044 10.9378 12.8044 10.7923C12.8044 10.6467 12.7466 10.5072 12.6437 10.4042C12.5408 10.3013 12.4012 10.2435 12.2556 10.2435H9.87768V7.86556C9.87768 7.42894 10.0511 7.0102 10.3599 6.70146C10.6686 6.39272 11.0873 6.21928 11.524 6.21928H12.9873C13.1329 6.21928 13.2724 6.16146 13.3753 6.05855C13.4783 5.95564 13.5361 5.81606 13.5361 5.67052C13.5361 5.52498 13.4783 5.3854 13.3753 5.28249C13.2724 5.17957 13.1329 5.12176 12.9873 5.12176H11.524C10.7963 5.12176 10.0984 5.41084 9.5838 5.9254C9.06924 6.43996 8.78016 7.13786 8.78016 7.86556V10.2435H6.4022C6.25666 10.2435 6.11708 10.3013 6.01417 10.4042C5.91126 10.5072 5.85344 10.6467 5.85344 10.7923C5.85344 10.9378 5.91126 11.0774 6.01417 11.1803C6.11708 11.2832 6.25666 11.341 6.4022 11.341H8.78016V17.542C6.64934 17.3996 4.65727 16.4347 3.22461 14.851C1.79195 13.2673 1.03088 11.1888 1.1021 9.0544C1.17333 6.92002 2.07128 4.89687 3.60633 3.41219C5.14138 1.92752 7.19335 1.09754 9.32892 1.09754C11.4645 1.09754 13.5165 1.92752 15.0515 3.41219C16.5866 4.89687 17.4845 6.92002 17.5557 9.0544C17.627 11.1888 16.8659 13.2673 15.4332 14.851C14.0006 16.4347 12.0085 17.3996 9.87768 17.542Z" fill="white"/>
</svg>
