<svg width="24" height="24" viewBox="0 0 24 24" fill="none" xmlns="http://www.w3.org/2000/svg">
<path d="M11.7066 7.49969C10.8745 7.49969 10.0611 7.74643 9.36923 8.20872C8.67737 8.67101 8.13812 9.32808 7.81969 10.0968C7.50126 10.8656 7.41795 11.7115 7.58028 12.5276C7.74262 13.3437 8.14331 14.0934 8.73169 14.6818C9.32007 15.2701 10.0697 15.6708 10.8858 15.8332C11.7019 15.9955 12.5479 15.9122 13.3166 15.5938C14.0854 15.2753 14.7424 14.7361 15.2047 14.0442C15.667 13.3524 15.9138 12.5389 15.9138 11.7068C15.9123 10.5915 15.4686 9.52222 14.6799 8.73354C13.8912 7.94486 12.822 7.50114 11.7066 7.49969ZM11.7066 14.8165C11.0916 14.8165 10.4904 14.6341 9.97898 14.2924C9.4676 13.9507 9.06903 13.4651 8.83367 12.8969C8.59831 12.3286 8.53673 11.7034 8.65671 11.1002C8.7767 10.497 9.07286 9.94289 9.50775 9.508C9.94264 9.07311 10.4967 8.77694 11.0999 8.65696C11.7031 8.53697 12.3284 8.59855 12.8966 8.83391C13.4648 9.06927 13.9505 9.46784 14.2922 9.97922C14.6339 10.4906 14.8162 11.0918 14.8162 11.7068C14.8162 12.5316 14.4886 13.3225 13.9054 13.9057C13.3223 14.4889 12.5313 14.8165 11.7066 14.8165ZM16.0967 2.37793H7.31652C6.00711 2.37938 4.75174 2.90019 3.82584 3.82609C2.89994 4.75198 2.37914 6.00735 2.37769 7.31677V16.0969C2.37914 17.4063 2.89994 18.6617 3.82584 19.5876C4.75174 20.5135 6.00711 21.0343 7.31652 21.0358H16.0967C17.4061 21.0343 18.6615 20.5135 19.5874 19.5876C20.5133 18.6617 21.0341 17.4063 21.0355 16.0969V7.31677C21.0341 6.00735 20.5133 4.75198 19.5874 3.82609C18.6615 2.90019 17.4061 2.37938 16.0967 2.37793ZM19.938 16.0969C19.938 17.1157 19.5333 18.0928 18.8129 18.8131C18.0925 19.5335 17.1155 19.9382 16.0967 19.9382H7.31652C6.29774 19.9382 5.32069 19.5335 4.6003 18.8131C3.87991 18.0928 3.4752 17.1157 3.4752 16.0969V7.31677C3.4752 6.29799 3.87991 5.32093 4.6003 4.60054C5.32069 3.88016 6.29774 3.47545 7.31652 3.47545H16.0967C17.1155 3.47545 18.0925 3.88016 18.8129 4.60054C19.5333 5.32093 19.938 6.29799 19.938 7.31677V16.0969ZM17.3771 6.95093C17.3771 7.13182 17.3235 7.30865 17.223 7.45905C17.1225 7.60946 16.9796 7.72668 16.8125 7.79591C16.6454 7.86513 16.4615 7.88324 16.2841 7.84795C16.1067 7.81266 15.9437 7.72556 15.8158 7.59765C15.6879 7.46974 15.6008 7.30677 15.5655 7.12936C15.5302 6.95194 15.5483 6.76805 15.6175 6.60092C15.6868 6.4338 15.804 6.29096 15.9544 6.19047C16.1048 6.08997 16.2816 6.03633 16.4625 6.03633C16.7051 6.03633 16.9377 6.13269 17.1092 6.30421C17.2808 6.47573 17.3771 6.70836 17.3771 6.95093Z" fill="white"/>
</svg>
