<svg width="24" height="24" viewBox="0 0 24 24" fill="none" xmlns="http://www.w3.org/2000/svg">
<path d="M19.7551 2.37793H3.65812C3.31853 2.37793 2.99285 2.51283 2.75272 2.75296C2.51259 2.99309 2.37769 3.31878 2.37769 3.65837V19.7553C2.37769 20.0949 2.51259 20.4206 2.75272 20.6607C2.99285 20.9009 3.31853 21.0358 3.65812 21.0358H19.7551C20.0947 21.0358 20.4204 20.9009 20.6605 20.6607C20.9006 20.4206 21.0355 20.0949 21.0355 19.7553V3.65837C21.0355 3.31878 20.9006 2.99309 20.6605 2.75296C20.4204 2.51283 20.0947 2.37793 19.7551 2.37793ZM19.938 19.7553C19.938 19.8038 19.9187 19.8504 19.8844 19.8847C19.8501 19.919 19.8036 19.9382 19.7551 19.9382H3.65812C3.60961 19.9382 3.56308 19.919 3.52878 19.8847C3.49448 19.8504 3.4752 19.8038 3.4752 19.7553V3.65837C3.4752 3.60986 3.49448 3.56333 3.52878 3.52902C3.56308 3.49472 3.60961 3.47545 3.65812 3.47545H19.7551C19.8036 3.47545 19.8501 3.49472 19.8844 3.52902C19.9187 3.56333 19.938 3.60986 19.938 3.65837V19.7553ZM8.59696 10.2435V16.0969C8.59696 16.2425 8.53915 16.382 8.43623 16.485C8.33332 16.5879 8.19374 16.6457 8.0482 16.6457C7.90266 16.6457 7.76308 16.5879 7.66017 16.485C7.55726 16.382 7.49944 16.2425 7.49944 16.0969V10.2435C7.49944 10.0979 7.55726 9.95837 7.66017 9.85545C7.76308 9.75254 7.90266 9.69473 8.0482 9.69473C8.19374 9.69473 8.33332 9.75254 8.43623 9.85545C8.53915 9.95837 8.59696 10.0979 8.59696 10.2435ZM16.6454 12.8044V16.0969C16.6454 16.2425 16.5876 16.382 16.4847 16.485C16.3818 16.5879 16.2422 16.6457 16.0967 16.6457C15.9511 16.6457 15.8116 16.5879 15.7086 16.485C15.6057 16.382 15.5479 16.2425 15.5479 16.0969V12.8044C15.5479 12.2707 15.3359 11.7589 14.9586 11.3816C14.5812 11.0042 14.0694 10.7922 13.5358 10.7922C13.0022 10.7922 12.4904 11.0042 12.113 11.3816C11.7357 11.7589 11.5237 12.2707 11.5237 12.8044V16.0969C11.5237 16.2425 11.4659 16.382 11.363 16.485C11.26 16.5879 11.1205 16.6457 10.9749 16.6457C10.8294 16.6457 10.6898 16.5879 10.5869 16.485C10.484 16.382 10.4262 16.2425 10.4262 16.0969V10.2435C10.4262 10.0979 10.484 9.95837 10.5869 9.85545C10.6898 9.75254 10.8294 9.69473 10.9749 9.69473C11.1205 9.69473 11.26 9.75254 11.363 9.85545C11.4659 9.95837 11.5237 10.0979 11.5237 10.2435V10.4365C11.9759 10.0527 12.5285 9.8062 13.1162 9.72617C13.704 9.64614 14.3023 9.73588 14.8407 9.98479C15.3791 10.2337 15.8351 10.6314 16.1549 11.131C16.4747 11.6306 16.6449 12.2112 16.6454 12.8044ZM8.9628 7.68261C8.9628 7.8635 8.90916 8.04033 8.80866 8.19073C8.70817 8.34114 8.56533 8.45836 8.3982 8.52759C8.23108 8.59681 8.04719 8.61492 7.86977 8.57963C7.69236 8.54434 7.52939 8.45723 7.40148 8.32933C7.27357 8.20142 7.18647 8.03845 7.15118 7.86104C7.11589 7.68362 7.134 7.49973 7.20322 7.3326C7.27245 7.16548 7.38967 7.02264 7.54008 6.92214C7.69048 6.82165 7.86731 6.76801 8.0482 6.76801C8.29077 6.76801 8.5234 6.86437 8.69492 7.03589C8.86644 7.20741 8.9628 7.44004 8.9628 7.68261Z" fill="white"/>
</svg>
