<svg width="24" height="24" viewBox="0 0 24 24" fill="none" xmlns="http://www.w3.org/2000/svg">
<path d="M14.9379 11.2496L10.5478 8.32286C10.4651 8.26769 10.369 8.23602 10.2697 8.23123C10.1704 8.22644 10.0716 8.24871 9.98402 8.29567C9.8964 8.34262 9.82318 8.4125 9.77218 8.49784C9.72118 8.58317 9.69432 8.68075 9.69447 8.78016V14.6336C9.69432 14.733 9.72118 14.8306 9.77218 14.9159C9.82318 15.0013 9.8964 15.0711 9.98402 15.1181C10.0716 15.1651 10.1704 15.1873 10.2697 15.1825C10.369 15.1777 10.4651 15.1461 10.5478 15.0909L14.9379 12.1642C15.0133 12.1141 15.0752 12.0462 15.1181 11.9664C15.1609 11.8866 15.1833 11.7974 15.1833 11.7069C15.1833 11.6163 15.1609 11.5272 15.1181 11.4474C15.0752 11.3676 15.0133 11.2996 14.9379 11.2496ZM10.792 13.6083V9.80543L13.6437 11.7069L10.792 13.6083ZM21.255 6.40221C21.1756 6.09371 21.0241 5.80848 20.8129 5.56998C20.6018 5.33147 20.337 5.14651 20.0404 5.03031C16.9198 3.82212 11.9142 3.84133 11.7066 3.84133C11.499 3.84133 6.49337 3.82212 3.3691 5.03031C3.07319 5.14699 2.80915 5.33216 2.59866 5.57064C2.38817 5.80911 2.23721 6.09409 2.15817 6.40221C1.92495 7.30674 1.646 8.96308 1.646 11.7069C1.646 14.4507 1.92495 16.107 2.15817 17.0116C2.23758 17.32 2.38909 17.6053 2.60024 17.8438C2.8114 18.0823 3.07617 18.2673 3.37276 18.3835C6.49337 19.5916 11.4981 19.5724 11.7066 19.5724H11.7715C12.4035 19.5724 17.0762 19.5322 20.0441 18.3835C20.3407 18.2673 20.6054 18.0823 20.8166 17.8438C21.0278 17.6053 21.1793 17.32 21.2587 17.0116C21.4919 16.1088 21.7708 14.4571 21.7708 11.7069C21.7708 8.95668 21.4928 7.30674 21.255 6.40221ZM20.1922 16.7372C20.157 16.8778 20.0889 17.008 19.9935 17.117C19.8981 17.2261 19.7781 17.311 19.6435 17.3646C16.7168 18.4923 11.7596 18.4749 11.7066 18.4749C11.6535 18.4749 6.70282 18.4932 3.77244 17.3619C3.6378 17.3082 3.51784 17.2234 3.42243 17.1143C3.32702 17.0052 3.2589 16.875 3.22368 16.7344C3.00326 15.8939 2.74352 14.3391 2.74352 11.7069C2.74352 9.07466 3.00326 7.51985 3.22094 6.67659C3.25616 6.53601 3.32428 6.40581 3.41969 6.29673C3.51509 6.18764 3.63506 6.10279 3.7697 6.04917C6.59032 4.96263 11.2978 4.93885 11.6846 4.93885H11.7066C11.756 4.93885 16.7104 4.92055 19.6407 6.05191C19.7754 6.10554 19.8953 6.19039 19.9907 6.29947C20.0862 6.40856 20.1543 6.53875 20.1895 6.67933C20.4072 7.51985 20.6669 9.07466 20.6669 11.7096C20.6669 14.3446 20.4099 15.8939 20.1922 16.7372Z" fill="white"/>
</svg>
